<?xml version="1.0" standalone="no"?>
<svg xmlns="http://www.w3.org/2000/svg" xmlns:xlink="http://www.w3.org/1999/xlink" width="260pt" height="461pt" viewBox="0.00 0.00 260.00 461.00">
<g id="graph0" class="graph" transform="translate(4,457) scale(1)" data-name="G">

<polygon fill="#2e3e56" stroke="none" points="-4,4 -4,-457 256,-457 256,4 -4,4" style=""/>
<g id="clust1" class="cluster" data-name="cluster_01">

<polygon fill="#2e3e56" stroke="black" points="8,-316 8,-445 244,-445 244,-316 8,-316" style=""/>
<text text-anchor="middle" x="126" y="-428.4" font-family="Times,serif" font-size="14.00" style="">Legend</text>
</g>
<!-- IERC20 -->
<g id="node1" class="node" pointer-events="visible" data-name="IERC20">

<ellipse fill="none" stroke="#445773" stroke-width="3" cx="81" cy="-18" rx="42.88" ry="18" style=""/>
<text text-anchor="middle" x="81" y="-13.8" font-family="Times,serif" font-size="14.00" fill="#f0f0f0" style="">IERC20</text>
</g>
<!-- Context -->
<g id="node2" class="node" pointer-events="visible" data-name="Context">

<ellipse fill="none" stroke="#445773" stroke-width="3" cx="81" cy="-72" rx="41.73" ry="18" style=""/>
<text text-anchor="middle" x="81" y="-67.8" font-family="Times,serif" font-size="14.00" fill="#f0f0f0" style="">Context</text>
</g>
<!-- SafeMath -->
<g id="node3" class="node" pointer-events="visible" data-name="SafeMath">

<ellipse fill="none" stroke="#445773" stroke-width="3" cx="81" cy="-126" rx="48.66" ry="18" style=""/>
<text text-anchor="middle" x="81" y="-121.8" font-family="Times,serif" font-size="14.00" fill="#f0f0f0" style="">SafeMath</text>
</g>
<!-- SafeMath&#45;&gt;SafeMath -->
<g id="edge1" class="edge" data-name="SafeMath-&gt;SafeMath">

<path fill="none" stroke="#1bc6a6" stroke-width="2" d="M58.32,-143.04C53.69,-152.86 61.25,-162 81,-162 91.18,-162 98.13,-159.57 101.83,-155.87" style=""/>
<polygon fill="#1bc6a6" stroke="#1bc6a6" stroke-width="2" points="105.28,-156.43 103.25,-146.03 98.36,-155.43 105.28,-156.43" style=""/>
</g>
<!-- Ownable -->
<g id="node4" class="node" pointer-events="visible" data-name="Ownable">

<ellipse fill="none" stroke="#445773" stroke-width="3" cx="81" cy="-198" rx="45.79" ry="18" style=""/>
<text text-anchor="middle" x="81" y="-193.8" font-family="Times,serif" font-size="14.00" fill="#f0f0f0" style="">Ownable</text>
</g>
<!-- Ownable&#45;&gt;Ownable -->
<g id="edge2" class="edge" data-name="Ownable-&gt;Ownable">

<path fill="none" stroke="#1bc6a6" stroke-width="2" d="M58.32,-215.04C53.69,-224.86 61.25,-234 81,-234 91.18,-234 98.13,-231.57 101.83,-227.87" style=""/>
<polygon fill="#1bc6a6" stroke="#1bc6a6" stroke-width="2" points="105.28,-228.43 103.25,-218.03 98.36,-227.43 105.28,-228.43" style=""/>
</g>
<!-- ERC20Vinu -->
<g id="node5" class="node" pointer-events="visible" data-name="ERC20Vinu">

<ellipse fill="none" stroke="#445773" stroke-width="3" cx="81" cy="-270" rx="58.58" ry="18" style=""/>
<text text-anchor="middle" x="81" y="-265.8" font-family="Times,serif" font-size="14.00" fill="#f0f0f0" style="">ERC20Vinu</text>
</g>
<!-- ERC20Vinu&#45;&gt;ERC20Vinu -->
<g id="edge3" class="edge" data-name="ERC20Vinu-&gt;ERC20Vinu">

<path fill="none" stroke="#1bc6a6" stroke-width="2" d="M57.99,-287.78C54.08,-297.31 61.75,-306 81,-306 90.62,-306 97.35,-303.83 101.19,-300.47" style=""/>
<polygon fill="#1bc6a6" stroke="#1bc6a6" stroke-width="2" points="104.6,-301.26 103.35,-290.74 97.77,-299.74 104.6,-301.26" style=""/>
</g>
<!-- key -->
<g id="node6" class="node" pointer-events="visible" data-name="key">

<polygon fill="#edad56" stroke="none" stroke-width="3" points="146,-412 16,-412 16,-324 146,-324 146,-412" style=""/>
<text text-anchor="start" x="65.64" y="-393.4" font-family="Times,serif" font-size="14.00" style="">Internal Call</text>
<text text-anchor="start" x="61.75" y="-373.4" font-family="Times,serif" font-size="14.00" style="">External Call</text>
<text text-anchor="start" x="39.2" y="-353.4" font-family="Times,serif" font-size="14.00" style="">Defined Contract</text>
<text text-anchor="start" x="25.6" y="-333.4" font-family="Times,serif" font-size="14.00" style="">Undefined Contract</text>
</g>
<!-- key2 -->
<g id="node7" class="node" pointer-events="visible" data-name="key2">

<polygon fill="#edad56" stroke="none" stroke-width="3" points="236,-412 182,-412 182,-324 236,-324 236,-412" style=""/>
<text text-anchor="start" x="199" y="-393.4" font-family="Times,serif" font-size="14.00" style="">   </text>
<text text-anchor="start" x="199" y="-373.4" font-family="Times,serif" font-size="14.00" style="">   </text>
<polygon fill="#445773" stroke="none" points="197,-348 197,-368 222,-368 222,-348 197,-348" style=""/>
<text text-anchor="start" x="199" y="-353.4" font-family="Times,serif" font-size="14.00" style="">   </text>
<polygon fill="none" stroke="#e8726d" points="199,-330 199,-346 220,-346 220,-330 199,-330" style=""/>
</g>
<!-- key&#45;&gt;key2 -->
<g id="edge4" class="edge" data-name="key-&gt;key2">

<path fill="none" stroke="#1bc6a6" stroke-width="2" d="M139,-398C159.39,-398 167.47,-398 183.05,-398" style=""/>
<polygon fill="#1bc6a6" stroke="#1bc6a6" stroke-width="2" points="182.97,-401.5 192.97,-398 182.97,-394.5 182.97,-401.5" style=""/>
</g>
<!-- key&#45;&gt;key2 -->
<g id="edge5" class="edge" data-name="key-&gt;key2">

<path fill="none" stroke="white" stroke-width="2" d="M139,-378C159.39,-378 167.47,-378 183.05,-378" style=""/>
<polygon fill="white" stroke="white" stroke-width="2" points="182.97,-381.5 192.97,-378 182.97,-374.5 182.97,-381.5" style=""/>
</g>
</g>
</svg>