<?xml version="1.0" standalone="no"?>
<svg xmlns="http://www.w3.org/2000/svg" xmlns:xlink="http://www.w3.org/1999/xlink" width="690pt" height="1015pt" viewBox="0.00 0.00 690.11 1015.00">
<g id="graph0" class="graph" transform="translate(4,1011) scale(1)" data-name="G">

<polygon fill="#2e3e56" stroke="none" points="-4,4 -4,-1011 686.11,-1011 686.11,4 -4,4" style=""/>
<g id="clust1" class="cluster" data-name="cluster_01">

<polygon fill="#2e3e56" stroke="black" points="27.09,-870 27.09,-999 393.78,-999 393.78,-870 27.09,-870" style=""/>
<text text-anchor="middle" x="210.44" y="-982.4" font-family="Times,serif" font-size="14.00" style="">Legend</text>
</g>
<!-- VRFCoordinatorV2Interface -->
<g id="node1" class="node" pointer-events="visible" data-name="VRFCoordinatorV2Interface">

<ellipse fill="none" stroke="#445773" stroke-width="3" cx="358.78" cy="-182" rx="122.69" ry="18" style=""/>
<text text-anchor="middle" x="358.78" y="-177.8" font-family="Times,serif" font-size="14.00" fill="#f0f0f0" style="">VRFCoordinatorV2Interface</text>
</g>
<!-- VRFConsumerBaseV2 -->
<g id="node2" class="node" pointer-events="visible" data-name="VRFConsumerBaseV2">

<ellipse fill="none" stroke="#445773" stroke-width="3" cx="100.09" cy="-176" rx="100.19" ry="18" style=""/>
<text text-anchor="middle" x="100.09" y="-171.8" font-family="Times,serif" font-size="14.00" fill="#f0f0f0" style="">VRFConsumerBaseV2</text>
</g>
<!-- VRFConsumerBaseV2&#45;&gt;VRFConsumerBaseV2 -->
<g id="edge1" class="edge" data-name="VRFConsumerBaseV2-&gt;VRFConsumerBaseV2">

<path fill="none" stroke="#1bc6a6" stroke-width="2" d="M54.25,-193.04C44.9,-202.86 60.18,-212 100.09,-212 121.3,-212 135.55,-209.42 142.85,-205.53" style=""/>
<polygon fill="#1bc6a6" stroke="#1bc6a6" stroke-width="2" points="146.21,-206.52 145.21,-195.98 139.41,-204.85 146.21,-206.52" style=""/>
</g>
<!-- IBEP20 -->
<g id="node3" class="node" pointer-events="visible" data-name="IBEP20">

<ellipse fill="none" stroke="#445773" stroke-width="3" cx="100.09" cy="-248" rx="41.74" ry="18" style=""/>
<text text-anchor="middle" x="100.09" y="-243.8" font-family="Times,serif" font-size="14.00" fill="#f0f0f0" style="">IBEP20</text>
</g>
<!-- IWBNB -->
<g id="node4" class="node" pointer-events="visible" data-name="IWBNB">

<ellipse fill="none" stroke="#445773" stroke-width="3" cx="100.09" cy="-302" rx="43.45" ry="18" style=""/>
<text text-anchor="middle" x="100.09" y="-297.8" font-family="Times,serif" font-size="14.00" fill="#f0f0f0" style="">IWBNB</text>
</g>
<!-- SafeMath -->
<g id="node5" class="node" pointer-events="visible" data-name="SafeMath">

<ellipse fill="none" stroke="#445773" stroke-width="3" cx="100.09" cy="-356" rx="48.66" ry="18" style=""/>
<text text-anchor="middle" x="100.09" y="-351.8" font-family="Times,serif" font-size="14.00" fill="#f0f0f0" style="">SafeMath</text>
</g>
<!-- Context -->
<g id="node6" class="node" pointer-events="visible" data-name="Context">

<ellipse fill="none" stroke="#445773" stroke-width="3" cx="100.09" cy="-410" rx="41.73" ry="18" style=""/>
<text text-anchor="middle" x="100.09" y="-405.8" font-family="Times,serif" font-size="14.00" fill="#f0f0f0" style="">Context</text>
</g>
<!-- Initializable -->
<g id="node7" class="node" pointer-events="visible" data-name="Initializable">

<ellipse fill="none" stroke="#445773" stroke-width="3" cx="100.09" cy="-464" rx="57.3" ry="18" style=""/>
<text text-anchor="middle" x="100.09" y="-459.8" font-family="Times,serif" font-size="14.00" fill="#f0f0f0" style="">Initializable</text>
</g>
<!-- Initializable&#45;&gt;Initializable -->
<g id="edge2" class="edge" data-name="Initializable-&gt;Initializable">

<path fill="none" stroke="#1bc6a6" stroke-width="2" d="M58.41,-477.67C41.74,-488.66 55.63,-500 100.09,-500 128.58,-500 144.52,-495.34 147.91,-489.11" style=""/>
<polygon fill="#1bc6a6" stroke="#1bc6a6" stroke-width="2" points="151.02,-487.5 143.21,-480.34 144.85,-490.8 151.02,-487.5" style=""/>
</g>
<!-- Ownable -->
<g id="node8" class="node" pointer-events="visible" data-name="Ownable">

<ellipse fill="none" stroke="#445773" stroke-width="3" cx="100.09" cy="-536" rx="45.79" ry="18" style=""/>
<text text-anchor="middle" x="100.09" y="-531.8" font-family="Times,serif" font-size="14.00" fill="#f0f0f0" style="">Ownable</text>
</g>
<!-- Ownable&#45;&gt;Ownable -->
<g id="edge3" class="edge" data-name="Ownable-&gt;Ownable">

<path fill="none" stroke="#1bc6a6" stroke-width="2" d="M62.25,-547.43C39.98,-559.06 52.6,-572 100.09,-572 136.46,-572 152.37,-564.41 147.85,-555.64" style=""/>
<polygon fill="#1bc6a6" stroke="#1bc6a6" stroke-width="2" points="150.2,-553.05 140.27,-549.36 145.74,-558.44 150.2,-553.05" style=""/>
</g>
<!-- IPancakeFactory -->
<g id="node9" class="node" pointer-events="visible" data-name="IPancakeFactory">

<ellipse fill="none" stroke="#445773" stroke-width="3" cx="100.09" cy="-608" rx="75.85" ry="18" style=""/>
<text text-anchor="middle" x="100.09" y="-603.8" font-family="Times,serif" font-size="14.00" fill="#f0f0f0" style="">IPancakeFactory</text>
</g>
<!-- IPancakePair -->
<g id="node10" class="node" pointer-events="visible" data-name="IPancakePair">

<ellipse fill="none" stroke="#445773" stroke-width="3" cx="100.09" cy="-662" rx="61.96" ry="18" style=""/>
<text text-anchor="middle" x="100.09" y="-657.8" font-family="Times,serif" font-size="14.00" fill="#f0f0f0" style="">IPancakePair</text>
</g>
<!-- IPancakeRouter01 -->
<g id="node11" class="node" pointer-events="visible" data-name="IPancakeRouter01">

<ellipse fill="none" stroke="#445773" stroke-width="3" cx="100.09" cy="-716" rx="82.23" ry="18" style=""/>
<text text-anchor="middle" x="100.09" y="-711.8" font-family="Times,serif" font-size="14.00" fill="#f0f0f0" style="">IPancakeRouter01</text>
</g>
<!-- IPancakeRouter02 -->
<g id="node12" class="node" pointer-events="visible" data-name="IPancakeRouter02">

<ellipse fill="none" stroke="#445773" stroke-width="3" cx="599.75" cy="-104" rx="82.23" ry="18" style=""/>
<text text-anchor="middle" x="599.75" y="-99.8" font-family="Times,serif" font-size="14.00" fill="#f0f0f0" style="">IPancakeRouter02</text>
</g>
<!-- Utils -->
<g id="node13" class="node" pointer-events="visible" data-name="Utils">

<ellipse fill="none" stroke="#445773" stroke-width="3" cx="358.78" cy="-72" rx="29.64" ry="18" style=""/>
<text text-anchor="middle" x="358.78" y="-67.8" font-family="Times,serif" font-size="14.00" fill="#f0f0f0" style="">Utils</text>
</g>
<!-- Utils&#45;&gt;IPancakeRouter02 -->
<g id="edge4" class="edge" data-name="Utils-&gt;IPancakeRouter02">

<path fill="none" stroke="white" stroke-width="2" d="M389.09,-75.92C420.17,-80.09 470.71,-86.85 514.38,-92.7" style=""/>
<polygon fill="white" stroke="white" stroke-width="2" points="513.71,-96.14 524.09,-94 514.64,-89.21 513.71,-96.14" style=""/>
</g>
<!-- Utils&#45;&gt;Utils -->
<g id="edge5" class="edge" data-name="Utils-&gt;Utils">

<path fill="none" stroke="#1bc6a6" stroke-width="2" d="M330.81,-79.96C300.75,-92.31 310.07,-108 358.78,-108 399.88,-108 412.94,-96.83 397.96,-85.92" style=""/>
<polygon fill="#1bc6a6" stroke="#1bc6a6" stroke-width="2" points="399.9,-82.99 389.43,-81.38 396.61,-89.17 399.9,-82.99" style=""/>
</g>
<!-- PancakeLibrary -->
<g id="node14" class="node" pointer-events="visible" data-name="PancakeLibrary">

<ellipse fill="none" stroke="#445773" stroke-width="3" cx="100.09" cy="-770" rx="72.33" ry="18" style=""/>
<text text-anchor="middle" x="100.09" y="-765.8" font-family="Times,serif" font-size="14.00" fill="#f0f0f0" style="">PancakeLibrary</text>
</g>
<!-- PancakeLibrary&#45;&gt;PancakeLibrary -->
<g id="edge6" class="edge" data-name="PancakeLibrary-&gt;PancakeLibrary">

<path fill="none" stroke="#1bc6a6" stroke-width="2" d="M55.86,-785.54C43.42,-795.91 58.16,-806 100.09,-806 123.03,-806 137.83,-802.98 144.5,-798.55" style=""/>
<polygon fill="#1bc6a6" stroke="#1bc6a6" stroke-width="2" points="148,-798.52 144.36,-788.57 141,-798.61 148,-798.52" style=""/>
</g>
<!-- ReentrancyGuard -->
<g id="node15" class="node" pointer-events="visible" data-name="ReentrancyGuard">

<ellipse fill="none" stroke="#445773" stroke-width="3" cx="100.09" cy="-842" rx="79.28" ry="18" style=""/>
<text text-anchor="middle" x="100.09" y="-837.8" font-family="Times,serif" font-size="14.00" fill="#f0f0f0" style="">ReentrancyGuard</text>
</g>
<!-- HODL -->
<g id="node16" class="node" pointer-events="visible" data-name="HODL">

<ellipse fill="none" stroke="#445773" stroke-width="3" cx="100.09" cy="-104" rx="37.71" ry="18" style=""/>
<text text-anchor="middle" x="100.09" y="-99.8" font-family="Times,serif" font-size="14.00" fill="#f0f0f0" style="">HODL</text>
</g>
<!-- HODL&#45;&gt;VRFCoordinatorV2Interface -->
<g id="edge11" class="edge" data-name="HODL-&gt;VRFCoordinatorV2Interface">

<path fill="none" stroke="white" stroke-width="2" d="M132.01,-115.23C159.27,-124.95 200.13,-139.13 236.19,-150 250.09,-154.19 264.98,-158.36 279.4,-162.25" style=""/>
<polygon fill="white" stroke="white" stroke-width="2" points="278.43,-165.61 288.99,-164.8 280.23,-158.84 278.43,-165.61" style=""/>
</g>
<!-- HODL&#45;&gt;IPancakeRouter02 -->
<g id="edge10" class="edge" data-name="HODL-&gt;IPancakeRouter02">

<path fill="none" stroke="white" stroke-width="2" d="M138.01,-108.52C165.13,-111.6 202.89,-115.4 236.19,-117 345.04,-122.23 372.57,-123.01 481.38,-117 491.83,-116.42 502.77,-115.56 513.6,-114.55" style=""/>
<polygon fill="white" stroke="white" stroke-width="2" points="513.61,-118.06 523.21,-113.6 512.92,-111.1 513.61,-118.06" style=""/>
</g>
<!-- HODL&#45;&gt;Utils -->
<g id="edge9" class="edge" data-name="HODL-&gt;Utils">

<path fill="none" stroke="white" stroke-width="2" d="M138.15,-99.38C185.2,-93.51 266.2,-83.42 315.59,-77.26" style=""/>
<polygon fill="white" stroke="white" stroke-width="2" points="315.83,-80.76 325.32,-76.05 314.97,-73.81 315.83,-80.76" style=""/>
</g>
<!-- HODL&#45;&gt;HODL -->
<g id="edge7" class="edge" data-name="HODL-&gt;HODL">

<path fill="none" stroke="#1bc6a6" stroke-width="2" d="M66.1,-113.59C38.74,-125.64 50.07,-140 100.09,-140 141.13,-140 156.13,-130.34 145.09,-120.21" style=""/>
<polygon fill="#1bc6a6" stroke="#1bc6a6" stroke-width="2" points="147.06,-117.31 136.69,-115.15 143.45,-123.31 147.06,-117.31" style=""/>
</g>
<!-- HODLStruct -->
<g id="node17" class="node" pointer-events="visible" data-name="HODLStruct">

<ellipse fill="none" stroke="#445773" stroke-width="3" cx="358.78" cy="-18" rx="60.85" ry="18" style=""/>
<text text-anchor="middle" x="358.78" y="-13.8" font-family="Times,serif" font-size="14.00" fill="#f0f0f0" style="">HODLStruct</text>
</g>
<!-- HODL&#45;&gt;HODLStruct -->
<g id="edge8" class="edge" data-name="HODL-&gt;HODLStruct">

<path fill="none" stroke="white" stroke-width="2" d="M127.92,-90.44C154.76,-77.32 197.5,-57.61 236.19,-45 253.98,-39.2 273.63,-34.24 291.86,-30.21" style=""/>
<polygon fill="white" stroke="white" stroke-width="2" points="292.51,-33.65 301.56,-28.14 291.05,-26.8 292.51,-33.65" style=""/>
</g>
<!-- key -->
<g id="node18" class="node" pointer-events="visible" data-name="key">

<polygon fill="#edad56" stroke="none" stroke-width="3" points="165.09,-966 35.09,-966 35.09,-878 165.09,-878 165.09,-966" style=""/>
<text text-anchor="start" x="84.73" y="-947.4" font-family="Times,serif" font-size="14.00" style="">Internal Call</text>
<text text-anchor="start" x="80.84" y="-927.4" font-family="Times,serif" font-size="14.00" style="">External Call</text>
<text text-anchor="start" x="58.3" y="-907.4" font-family="Times,serif" font-size="14.00" style="">Defined Contract</text>
<text text-anchor="start" x="44.7" y="-887.4" font-family="Times,serif" font-size="14.00" style="">Undefined Contract</text>
</g>
<!-- key2 -->
<g id="node19" class="node" pointer-events="visible" data-name="key2">

<polygon fill="#edad56" stroke="none" stroke-width="3" points="385.78,-966 331.78,-966 331.78,-878 385.78,-878 385.78,-966" style=""/>
<text text-anchor="start" x="348.78" y="-947.4" font-family="Times,serif" font-size="14.00" style="">   </text>
<text text-anchor="start" x="348.78" y="-927.4" font-family="Times,serif" font-size="14.00" style="">   </text>
<polygon fill="#445773" stroke="none" points="346.78,-902 346.78,-922 371.78,-922 371.78,-902 346.78,-902" style=""/>
<text text-anchor="start" x="348.78" y="-907.4" font-family="Times,serif" font-size="14.00" style="">   </text>
<polygon fill="none" stroke="#e8726d" points="348.78,-884 348.78,-900 369.78,-900 369.78,-884 348.78,-884" style=""/>
</g>
<!-- key&#45;&gt;key2 -->
<g id="edge12" class="edge" data-name="key-&gt;key2">

<path fill="none" stroke="#1bc6a6" stroke-width="2" d="M158.09,-952C237.11,-952 259.99,-952 333.09,-952" style=""/>
<polygon fill="#1bc6a6" stroke="#1bc6a6" stroke-width="2" points="332.76,-955.5 342.76,-952 332.76,-948.5 332.76,-955.5" style=""/>
</g>
<!-- key&#45;&gt;key2 -->
<g id="edge13" class="edge" data-name="key-&gt;key2">

<path fill="none" stroke="white" stroke-width="2" d="M158.09,-932C237.11,-932 259.99,-932 333.09,-932" style=""/>
<polygon fill="white" stroke="white" stroke-width="2" points="332.76,-935.5 342.76,-932 332.76,-928.5 332.76,-935.5" style=""/>
</g>
</g>
</svg>