<?xml version="1.0" standalone="no"?>
<svg xmlns="http://www.w3.org/2000/svg" xmlns:xlink="http://www.w3.org/1999/xlink" width="349pt" height="416pt" viewBox="0.00 0.00 349.34 416.00">
<g id="graph0" class="graph" transform="translate(4,412) scale(1)" data-name="G">

<polygon fill="#2e3e56" stroke="none" points="-4,4 -4,-412 345.34,-412 345.34,4 -4,4" style=""/>
<g id="clust1" class="cluster" data-name="cluster_01">

<polygon fill="#2e3e56" stroke="black" points="8,-271 8,-400 296.67,-400 296.67,-271 8,-271" style=""/>
<text text-anchor="middle" x="152.34" y="-383.4" font-family="Times,serif" font-size="14.00" style="">Legend</text>
</g>
<!-- ITreasuryHandler -->
<g id="node1" class="node" pointer-events="visible" data-name="ITreasuryHandler">

<ellipse fill="none" stroke="#445773" stroke-width="3" cx="261.67" cy="-72" rx="79.85" ry="18" style=""/>
<text text-anchor="middle" x="261.67" y="-67.8" font-family="Times,serif" font-size="14.00" fill="#f0f0f0" style="">ITreasuryHandler</text>
</g>
<!-- ITaxHandler -->
<g id="node2" class="node" pointer-events="visible" data-name="ITaxHandler">

<ellipse fill="none" stroke="#445773" stroke-width="3" cx="261.67" cy="-18" rx="60.24" ry="18" style=""/>
<text text-anchor="middle" x="261.67" y="-13.8" font-family="Times,serif" font-size="14.00" fill="#f0f0f0" style="">ITaxHandler</text>
</g>
<!-- Context -->
<g id="node3" class="node" pointer-events="visible" data-name="Context">

<ellipse fill="none" stroke="#445773" stroke-width="3" cx="81" cy="-117" rx="41.73" ry="18" style=""/>
<text text-anchor="middle" x="81" y="-112.8" font-family="Times,serif" font-size="14.00" fill="#f0f0f0" style="">Context</text>
</g>
<!-- Ownable -->
<g id="node4" class="node" pointer-events="visible" data-name="Ownable">

<ellipse fill="none" stroke="#445773" stroke-width="3" cx="81" cy="-171" rx="45.79" ry="18" style=""/>
<text text-anchor="middle" x="81" y="-166.8" font-family="Times,serif" font-size="14.00" fill="#f0f0f0" style="">Ownable</text>
</g>
<!-- Ownable&#45;&gt;Ownable -->
<g id="edge1" class="edge" data-name="Ownable-&gt;Ownable">

<path fill="none" stroke="#1bc6a6" stroke-width="2" d="M50.77,-185.79C40.93,-196.42 51.01,-207 81,-207 98.34,-207 109.02,-203.46 113.05,-198.43" style=""/>
<polygon fill="#1bc6a6" stroke="#1bc6a6" stroke-width="2" points="116.55,-198.19 111.66,-188.79 109.62,-199.18 116.55,-198.19" style=""/>
</g>
<!-- IERC20 -->
<g id="node5" class="node" pointer-events="visible" data-name="IERC20">

<ellipse fill="none" stroke="#445773" stroke-width="3" cx="81" cy="-243" rx="42.88" ry="18" style=""/>
<text text-anchor="middle" x="81" y="-238.8" font-family="Times,serif" font-size="14.00" fill="#f0f0f0" style="">IERC20</text>
</g>
<!-- BEEP -->
<g id="node6" class="node" pointer-events="visible" data-name="BEEP">

<ellipse fill="none" stroke="#445773" stroke-width="3" cx="81" cy="-45" rx="34.79" ry="18" style=""/>
<text text-anchor="middle" x="81" y="-40.8" font-family="Times,serif" font-size="14.00" fill="#f0f0f0" style="">BEEP</text>
</g>
<!-- BEEP&#45;&gt;ITreasuryHandler -->
<g id="edge3" class="edge" data-name="BEEP-&gt;ITreasuryHandler">

<path fill="none" stroke="white" stroke-width="2" d="M115.61,-50.08C133.86,-52.84 157.28,-56.38 179.95,-59.8" style=""/>
<polygon fill="white" stroke="white" stroke-width="2" points="179.4,-63.26 189.81,-61.29 180.45,-56.34 179.4,-63.26" style=""/>
</g>
<!-- BEEP&#45;&gt;ITaxHandler -->
<g id="edge4" class="edge" data-name="BEEP-&gt;ITaxHandler">

<path fill="none" stroke="white" stroke-width="2" d="M115.61,-39.92C137.5,-36.61 166.82,-32.18 193.38,-28.17" style=""/>
<polygon fill="white" stroke="white" stroke-width="2" points="193.79,-31.65 203.15,-26.69 192.74,-24.73 193.79,-31.65" style=""/>
</g>
<!-- BEEP&#45;&gt;BEEP -->
<g id="edge2" class="edge" data-name="BEEP-&gt;BEEP">

<path fill="none" stroke="#1bc6a6" stroke-width="2" d="M53.61,-57.17C39.4,-68.6 48.54,-81 81,-81 102.81,-81 114.09,-75.4 114.84,-68.26" style=""/>
<polygon fill="#1bc6a6" stroke="#1bc6a6" stroke-width="2" points="117.96,-66.68 109.91,-59.79 111.91,-70.19 117.96,-66.68" style=""/>
</g>
<!-- key -->
<g id="node7" class="node" pointer-events="visible" data-name="key">

<polygon fill="#edad56" stroke="none" stroke-width="3" points="146,-367 16,-367 16,-279 146,-279 146,-367" style=""/>
<text text-anchor="start" x="65.64" y="-348.4" font-family="Times,serif" font-size="14.00" style="">Internal Call</text>
<text text-anchor="start" x="61.75" y="-328.4" font-family="Times,serif" font-size="14.00" style="">External Call</text>
<text text-anchor="start" x="39.2" y="-308.4" font-family="Times,serif" font-size="14.00" style="">Defined Contract</text>
<text text-anchor="start" x="25.6" y="-288.4" font-family="Times,serif" font-size="14.00" style="">Undefined Contract</text>
</g>
<!-- key2 -->
<g id="node8" class="node" pointer-events="visible" data-name="key2">

<polygon fill="#edad56" stroke="none" stroke-width="3" points="288.67,-367 234.67,-367 234.67,-279 288.67,-279 288.67,-367" style=""/>
<text text-anchor="start" x="251.67" y="-348.4" font-family="Times,serif" font-size="14.00" style="">   </text>
<text text-anchor="start" x="251.67" y="-328.4" font-family="Times,serif" font-size="14.00" style="">   </text>
<polygon fill="#445773" stroke="none" points="249.67,-303 249.67,-323 274.67,-323 274.67,-303 249.67,-303" style=""/>
<text text-anchor="start" x="251.67" y="-308.4" font-family="Times,serif" font-size="14.00" style="">   </text>
<polygon fill="none" stroke="#e8726d" points="251.67,-285 251.67,-301 272.67,-301 272.67,-285 251.67,-285" style=""/>
</g>
<!-- key&#45;&gt;key2 -->
<g id="edge5" class="edge" data-name="key-&gt;key2">

<path fill="none" stroke="#1bc6a6" stroke-width="2" d="M139,-353C183.17,-353 197.32,-353 235.87,-353" style=""/>
<polygon fill="#1bc6a6" stroke="#1bc6a6" stroke-width="2" points="235.65,-356.5 245.65,-353 235.65,-349.5 235.65,-356.5" style=""/>
</g>
<!-- key&#45;&gt;key2 -->
<g id="edge6" class="edge" data-name="key-&gt;key2">

<path fill="none" stroke="white" stroke-width="2" d="M139,-333C183.17,-333 197.32,-333 235.87,-333" style=""/>
<polygon fill="white" stroke="white" stroke-width="2" points="235.65,-336.5 245.65,-333 235.65,-329.5 235.65,-336.5" style=""/>
</g>
</g>
</svg>