<?xml version="1.0" standalone="no"?>
<svg xmlns="http://www.w3.org/2000/svg" xmlns:xlink="http://www.w3.org/1999/xlink" width="429pt" height="641pt" viewBox="0.00 0.00 429.31 641.00">
<g id="graph0" class="graph" transform="translate(4,637) scale(1)" data-name="G">

<polygon fill="#2e3e56" stroke="none" points="-4,4 -4,-637 425.31,-637 425.31,4 -4,4" style=""/>
<g id="clust1" class="cluster" data-name="cluster_01">

<polygon fill="#2e3e56" stroke="black" points="23.33,-496 23.33,-625 359.98,-625 359.98,-496 23.33,-496" style=""/>
<text text-anchor="middle" x="191.65" y="-608.4" font-family="Times,serif" font-size="14.00" style="">Legend</text>
</g>
<!-- Dogira -->
<g id="node1" class="node" pointer-events="visible" data-name="Dogira">

<ellipse fill="none" stroke="#445773" stroke-width="3" cx="96.33" cy="-18" rx="37.71" ry="18" style=""/>
<text text-anchor="middle" x="96.33" y="-13.8" font-family="Times,serif" font-size="14.00" fill="#f0f0f0" style="">Dogira</text>
</g>
<!-- Dogira&#45;&gt;Dogira -->
<g id="edge1" class="edge" data-name="Dogira-&gt;Dogira">

<path fill="none" stroke="#1bc6a6" stroke-width="2" d="M63.84,-28.87C42.85,-40.64 53.68,-54 96.33,-54 128.65,-54 142.69,-46.33 138.47,-37.49" style=""/>
<polygon fill="#1bc6a6" stroke="#1bc6a6" stroke-width="2" points="140.86,-34.94 131.07,-30.89 136.2,-40.16 140.86,-34.94" style=""/>
</g>
<!-- IUniswapV2Router02 -->
<g id="node5" class="node" pointer-events="visible" data-name="IUniswapV2Router02">

<ellipse fill="none" stroke="#445773" stroke-width="3" cx="324.98" cy="-18" rx="96.15" ry="18" style=""/>
<text text-anchor="middle" x="324.98" y="-13.8" font-family="Times,serif" font-size="14.00" fill="#f0f0f0" style="">IUniswapV2Router02</text>
</g>
<!-- Dogira&#45;&gt;IUniswapV2Router02 -->
<g id="edge2" class="edge" data-name="Dogira-&gt;IUniswapV2Router02">

<path fill="none" stroke="white" stroke-width="2" d="M135.52,-18C157.4,-18 186.08,-18 214.45,-18" style=""/>
<polygon fill="white" stroke="white" stroke-width="2" points="214.41,-21.5 224.41,-18 214.41,-14.5 214.41,-21.5" style=""/>
</g>
<!-- Address -->
<g id="node2" class="node" pointer-events="visible" data-name="Address">

<ellipse fill="none" stroke="#445773" stroke-width="3" cx="96.33" cy="-90" rx="42.87" ry="18" style=""/>
<text text-anchor="middle" x="96.33" y="-85.8" font-family="Times,serif" font-size="14.00" fill="#f0f0f0" style="">Address</text>
</g>
<!-- Address&#45;&gt;Address -->
<g id="edge3" class="edge" data-name="Address-&gt;Address">

<path fill="none" stroke="#1bc6a6" stroke-width="2" d="M61.66,-102.17C43.69,-113.6 55.24,-126 96.33,-126 125.22,-126 139.5,-119.87 139.19,-112.26" style=""/>
<polygon fill="#1bc6a6" stroke="#1bc6a6" stroke-width="2" points="141.93,-110.07 132.9,-104.52 136.5,-114.49 141.93,-110.07" style=""/>
</g>
<!-- IERC20 -->
<g id="node3" class="node" pointer-events="visible" data-name="IERC20">

<ellipse fill="none" stroke="#445773" stroke-width="3" cx="96.33" cy="-162" rx="42.88" ry="18" style=""/>
<text text-anchor="middle" x="96.33" y="-157.8" font-family="Times,serif" font-size="14.00" fill="#f0f0f0" style="">IERC20</text>
</g>
<!-- IUniswapV2Factory -->
<g id="node4" class="node" pointer-events="visible" data-name="IUniswapV2Factory">

<ellipse fill="none" stroke="#445773" stroke-width="3" cx="96.33" cy="-216" rx="89.77" ry="18" style=""/>
<text text-anchor="middle" x="96.33" y="-211.8" font-family="Times,serif" font-size="14.00" fill="#f0f0f0" style="">IUniswapV2Factory</text>
</g>
<!-- IUniswapV2Router01 -->
<g id="node6" class="node" pointer-events="visible" data-name="IUniswapV2Router01">

<ellipse fill="none" stroke="#445773" stroke-width="3" cx="96.33" cy="-270" rx="96.15" ry="18" style=""/>
<text text-anchor="middle" x="96.33" y="-265.8" font-family="Times,serif" font-size="14.00" fill="#f0f0f0" style="">IUniswapV2Router01</text>
</g>
<!-- Ownable -->
<g id="node7" class="node" pointer-events="visible" data-name="Ownable">

<ellipse fill="none" stroke="#445773" stroke-width="3" cx="96.33" cy="-324" rx="45.79" ry="18" style=""/>
<text text-anchor="middle" x="96.33" y="-319.8" font-family="Times,serif" font-size="14.00" fill="#f0f0f0" style="">Ownable</text>
</g>
<!-- Ownable&#45;&gt;Ownable -->
<g id="edge4" class="edge" data-name="Ownable-&gt;Ownable">

<path fill="none" stroke="#1bc6a6" stroke-width="2" d="M60.8,-336.73C44.07,-348 55.91,-360 96.33,-360 124.11,-360 138.39,-354.33 139.17,-347.12" style=""/>
<polygon fill="#1bc6a6" stroke="#1bc6a6" stroke-width="2" points="142.21,-345.37 133.59,-339.21 136.49,-349.4 142.21,-345.37" style=""/>
</g>
<!-- Context -->
<g id="node8" class="node" pointer-events="visible" data-name="Context">

<ellipse fill="none" stroke="#445773" stroke-width="3" cx="96.33" cy="-396" rx="41.73" ry="18" style=""/>
<text text-anchor="middle" x="96.33" y="-391.8" font-family="Times,serif" font-size="14.00" fill="#f0f0f0" style="">Context</text>
</g>
<!-- SafeMath -->
<g id="node9" class="node" pointer-events="visible" data-name="SafeMath">

<ellipse fill="none" stroke="#445773" stroke-width="3" cx="96.33" cy="-450" rx="48.66" ry="18" style=""/>
<text text-anchor="middle" x="96.33" y="-445.8" font-family="Times,serif" font-size="14.00" fill="#f0f0f0" style="">SafeMath</text>
</g>
<!-- SafeMath&#45;&gt;SafeMath -->
<g id="edge5" class="edge" data-name="SafeMath-&gt;SafeMath">

<path fill="none" stroke="#1bc6a6" stroke-width="2" d="M60,-463.29C44.47,-474.4 56.58,-486 96.33,-486 122.41,-486 136.59,-481 138.87,-474.43" style=""/>
<polygon fill="#1bc6a6" stroke="#1bc6a6" stroke-width="2" points="142.06,-472.96 134.13,-465.94 135.95,-476.37 142.06,-472.96" style=""/>
</g>
<!-- key -->
<g id="node10" class="node" pointer-events="visible" data-name="key">

<polygon fill="#edad56" stroke="none" stroke-width="3" points="161.33,-592 31.33,-592 31.33,-504 161.33,-504 161.33,-592" style=""/>
<text text-anchor="start" x="80.96" y="-573.4" font-family="Times,serif" font-size="14.00" style="">Internal Call</text>
<text text-anchor="start" x="77.07" y="-553.4" font-family="Times,serif" font-size="14.00" style="">External Call</text>
<text text-anchor="start" x="54.53" y="-533.4" font-family="Times,serif" font-size="14.00" style="">Defined Contract</text>
<text text-anchor="start" x="40.93" y="-513.4" font-family="Times,serif" font-size="14.00" style="">Undefined Contract</text>
</g>
<!-- key2 -->
<g id="node11" class="node" pointer-events="visible" data-name="key2">

<polygon fill="#edad56" stroke="none" stroke-width="3" points="351.98,-592 297.98,-592 297.98,-504 351.98,-504 351.98,-592" style=""/>
<text text-anchor="start" x="314.98" y="-573.4" font-family="Times,serif" font-size="14.00" style="">   </text>
<text text-anchor="start" x="314.98" y="-553.4" font-family="Times,serif" font-size="14.00" style="">   </text>
<polygon fill="#445773" stroke="none" points="312.98,-528 312.98,-548 337.98,-548 337.98,-528 312.98,-528" style=""/>
<text text-anchor="start" x="314.98" y="-533.4" font-family="Times,serif" font-size="14.00" style="">   </text>
<polygon fill="none" stroke="#e8726d" points="314.98,-510 314.98,-526 335.98,-526 335.98,-510 314.98,-510" style=""/>
</g>
<!-- key&#45;&gt;key2 -->
<g id="edge6" class="edge" data-name="key-&gt;key2">

<path fill="none" stroke="#1bc6a6" stroke-width="2" d="M154.33,-578C219.88,-578 239.44,-578 299.06,-578" style=""/>
<polygon fill="#1bc6a6" stroke="#1bc6a6" stroke-width="2" points="298.95,-581.5 308.95,-578 298.95,-574.5 298.95,-581.5" style=""/>
</g>
<!-- key&#45;&gt;key2 -->
<g id="edge7" class="edge" data-name="key-&gt;key2">

<path fill="none" stroke="white" stroke-width="2" d="M154.33,-558C219.88,-558 239.44,-558 299.06,-558" style=""/>
<polygon fill="white" stroke="white" stroke-width="2" points="298.95,-561.5 308.95,-558 298.95,-554.5 298.95,-561.5" style=""/>
</g>
</g>
</svg>